<?xml version="1.0" encoding="UTF-8" standalone="no"?>
<svg
   id="svg"
   version="1.1"
   width="600"
   height="533"
   xmlns="http://www.w3.org/2000/svg"
   xmlns:svg="http://www.w3.org/2000/svg">
  <defs
     id="defs137" />
  <path
     d="m 285.923,82.514 c -5.817,1.227 -12.117,2.726 -14,3.33 -1.883,0.605 -6.573,2.058 -10.423,3.229 -7.9,2.405 -11.393,3.894 -27.013,11.516 -8.691,4.242 -12.276,6.659 -17,11.462 -3.293,3.348 -7.353,6.668 -9.023,7.378 -6.674,2.836 -16.532,17.096 -22.171,32.071 -1.243,3.3 -2.267,6.823 -2.276,7.828 -0.01,1.006 -1.561,5.056 -3.449,9 -3.235,6.762 -3.47,7.973 -4.112,21.172 -0.852,17.513 1.859,44.044 5.143,50.339 2.255,4.321 1.658,6.442 -3.116,11.068 -2.484,2.407 -4.846,5.55 -5.25,6.985 -0.403,1.434 -0.733,9.808 -0.733,18.608 0,15.509 0.083,16.153 2.714,21 1.493,2.75 3.518,5.97 4.5,7.156 2.79,3.367 9.337,6.344 13.954,6.344 3.132,0 4.329,0.444 4.718,1.75 1.567,5.266 3.613,15.794 3.607,18.562 -0.017,8.225 5.137,29.594 8.488,35.188 2.403,4.012 5.519,15.004 5.512,19.444 -0.004,2.765 -0.742,5.672 -1.878,7.395 -1.835,2.783 -10.62,9.661 -12.339,9.661 -0.48,0 -3.334,1.575 -6.343,3.5 -4.782,3.059 -6.273,3.5 -11.827,3.5 -3.495,0 -8.324,0.731 -10.73,1.625 -6.031,2.239 -7.804,1.961 -13.98,-2.195 -4.67,-3.143 -5.83,-3.514 -8.884,-2.841 -5.016,1.105 -17.336,0.632 -33.512,-1.286 -9.633,-1.142 -22.579,-1.683 -41.5,-1.732 -30.477,-0.079 -31.677,0.105 -46.849,7.185 -5.673,2.647 -9.17,5.267 -15.334,11.49 C 2.079,433.085 0,436.529 0,443.48 c 0,3.627 0.412,5.52 1.2,5.52 0.933,0 0.933,0.267 0,1.2 -2.081,2.081 -1.334,3.336 3.332,5.604 2.493,1.211 4.825,2.988 5.183,3.949 0.357,0.961 1.396,2.872 2.308,4.247 6.29,9.483 8.25,13.711 8.206,17.703 -0.029,2.619 0.536,4.687 1.499,5.486 0.85,0.705 2.368,3.202 3.373,5.547 1.005,2.345 2.32,4.264 2.922,4.264 0.602,0 0.817,0.45 0.477,1 -0.34,0.55 -0.127,1 0.472,1 2.075,0 2.071,-2.605 -0.016,-9.039 -2.631,-8.114 -3.414,-15.138 -2.502,-22.442 0.577,-4.613 1.409,-6.469 4.375,-9.752 3.116,-3.449 3.659,-4.742 3.636,-8.661 -0.015,-2.533 -0.658,-6.701 -1.428,-9.262 -3.239,-10.763 4.558,-28.118 14.278,-31.783 4.119,-1.552 6.553,-1.31 9.412,0.939 3.037,2.389 5.076,2.505 8.909,0.506 3.497,-1.824 7.53,-1.936 9.226,-0.256 1.011,1.001 1.459,0.902 2.25,-0.5 1.962,-3.478 10.963,-1.48 15.928,3.536 6.888,6.96 17.96,12.107 17.96,8.349 0,-3.483 -7.327,-9.153 -8.25,-6.385 -0.233,0.698 -1.561,0.638 -4.048,-0.183 -3.552,-1.173 -5.058,-3.06 -2.452,-3.073 0.688,-0.004 2.509,-0.663 4.048,-1.466 3.418,-1.783 8.347,-1.034 11.401,1.733 1.392,1.26 2.85,1.742 3.972,1.312 1.512,-0.58 1.556,-0.818 0.301,-1.611 -1.259,-0.797 -1.237,-0.934 0.156,-0.947 2.767,-0.026 3.98,2.458 3.294,6.748 -0.701,4.384 0.344,5.763 3.587,4.734 2.833,-0.899 2.466,-2.497 -0.574,-2.497 h -2.565 l 2.815,-3.979 c 2.592,-3.663 4.176,-4.604 6.815,-4.047 2.407,0.508 11.355,1.12 15.205,1.04 3.639,-0.076 4.395,0.287 5.616,2.699 1.807,3.57 5.46,20.627 4.987,23.287 -0.049,0.275 -0.399,1.963 -0.778,3.75 -0.442,2.085 -0.302,3.25 0.391,3.25 0.593,0 1.079,-0.927 1.079,-2.059 0,-1.231 0.438,-1.788 1.09,-1.385 0.677,0.418 0.832,2.046 0.409,4.301 -0.874,4.658 -1.409,5.462 -2.843,4.272 -0.879,-0.729 -1.184,2.767 -1.238,14.202 -0.064,13.372 -0.33,15.725 -2.245,19.864 -1.195,2.582 -2.173,5.845 -2.173,7.25 0,2.639 -1.526,3.512 -2.281,1.305 -0.235,-0.687 -0.273,-0.292 -0.085,0.878 0.453,2.809 -1.519,13.326 -2.974,15.867 -0.631,1.103 -1.218,3.355 -1.305,5.005 -0.186,3.555 -2.039,10.703 -3.954,15.25 l -1.369,3.25 3.234,-0.005 c 3.221,-0.005 3.243,-0.039 5.55,-8.75 1.274,-4.81 2.979,-10.77 3.788,-13.245 2.564,-7.843 9.401,-37.317 9.395,-40.5 -0.009,-4.324 5.806,-26.887 8.578,-33.284 1.765,-4.072 1.763,-4.216 -0.057,-4.216 -0.813,0 -2.485,1.913 -3.715,4.25 l -2.235,4.25 -0.626,-4.5 c -0.345,-2.475 -2.048,-8.669 -3.786,-13.765 -4.229,-12.407 -4.13,-13.166 1.154,-8.836 3.724,3.052 4.95,3.504 8.993,3.317 2.575,-0.119 4.684,-0.553 4.688,-0.966 0.004,-0.413 1.132,-0.75 2.507,-0.75 2.111,0 2.5,0.467 2.5,3 0,2.056 0.493,3 1.566,3 2.294,0 5.429,-1.884 5.466,-3.285 0.017,-0.668 0.721,-2.115 1.565,-3.215 1.524,-1.988 1.544,-1.987 3.394,0.27 1.827,2.228 1.874,2.232 2.503,0.25 0.352,-1.111 1.06,-2.02 1.573,-2.02 1.309,0 1.161,1.223 -0.425,3.527 -3.001,4.361 -3.926,9.388 -2.599,14.127 1.51,5.392 3.119,3.925 2.337,-2.132 -0.45,-3.485 0.089,-5.024 4.034,-11.522 2.504,-4.125 4.56,-7.999 4.569,-8.608 0.009,-0.609 2.267,-2.275 5.017,-3.702 l 5,-2.594 -0.003,3.202 c -0.002,1.761 -0.659,7.027 -1.461,11.702 -0.801,4.675 -1.404,9.175 -1.339,10 0.065,0.825 0.002,2.4 -0.139,3.5 -0.222,1.726 -0.359,1.658 -0.996,-0.5 -0.407,-1.375 -1.316,-2.369 -2.021,-2.21 -0.996,0.226 -1.126,-1.17 -0.582,-6.25 0.434,-4.051 0.33,-6.54 -0.272,-6.54 -1.386,0 -2.16,2.465 -3.288,10.478 -2.613,18.551 -2.547,19.727 2.118,37.534 0.506,1.931 0.652,4.539 0.323,5.795 -0.383,1.464 -0.036,2.717 0.965,3.489 1.01,0.779 1.749,3.499 2.092,7.704 0.291,3.575 0.767,9.044 1.056,12.154 0.509,5.461 0.451,5.635 -1.713,5.107 -2.177,-0.531 -2.167,-0.465 0.387,2.346 1.445,1.591 3.416,5.368 4.379,8.393 1.7,5.34 3.977,9 5.598,9 0.437,0 0.146,-1.551 -0.646,-3.447 -0.792,-1.895 -1.041,-3.692 -0.554,-3.994 1.129,-0.697 1.755,0.969 2.656,7.063 0.397,2.683 1.527,5.912 2.511,7.175 0.985,1.263 2.083,3.626 2.439,5.25 0.565,2.569 1.094,2.953 4.069,2.953 1.882,0 3.421,-0.4 3.421,-0.889 0,-0.49 -1.74,-4.427 -3.867,-8.75 -2.126,-4.324 -4.176,-8.986 -4.555,-10.361 -0.379,-1.375 -1.751,-6.1 -3.048,-10.5 -3.323,-11.269 -5.298,-20.571 -6.585,-31 -0.61,-4.95 -1.708,-11.7 -2.439,-15 -2.081,-9.392 -2.735,-16.776 -1.725,-19.472 0.815,-2.173 1.059,-1.72 2.023,3.75 0.603,3.421 1.602,7.008 2.221,7.971 1.071,1.666 1.099,1.666 0.582,0.002 -0.299,-0.963 -0.845,-6.402 -1.212,-12.087 -0.5,-7.736 -0.271,-12.203 0.909,-17.751 0.868,-4.077 1.877,-9.888 2.243,-12.913 0.366,-3.025 1.474,-7.525 2.463,-10 0.99,-2.475 2.113,-5.4 2.497,-6.5 0.616,-1.766 0.88,-1.591 2.262,1.5 0.86,1.925 2.376,5.3 3.37,7.5 0.993,2.2 2.736,4.577 3.872,5.283 1.137,0.705 1.81,1.698 1.496,2.206 -0.314,0.508 0.592,1.685 2.012,2.616 1.421,0.93 3.305,3.088 4.187,4.793 3.59,6.946 11.483,14.543 17.512,16.856 3.274,1.256 2.929,-1.349 -0.713,-5.381 -2.013,-2.228 -3.362,-4.348 -2.997,-4.712 0.365,-0.364 1.486,0.353 2.49,1.591 1.048,1.293 2.459,2.01 3.31,1.683 0.827,-0.317 2.084,0.265 2.838,1.314 0.745,1.035 2.142,2.176 3.104,2.535 0.979,0.366 1.75,1.68 1.75,2.984 0,2.095 0.371,2.287 3.669,1.902 2.769,-0.323 4.007,0.033 5.045,1.451 1.251,1.708 2.618,1.851 14.982,1.57 8.974,-0.204 14.59,0.099 16.5,0.89 2.542,1.053 3.133,0.943 4.853,-0.904 1.078,-1.156 3.834,-2.607 6.125,-3.224 6.509,-1.752 17.466,-9.812 27.576,-20.283 12.983,-13.447 11.885,-15.341 -1.619,-2.792 -5.978,5.556 -11.433,10.781 -12.122,11.612 -0.69,0.83 -1.839,1.51 -2.555,1.51 -0.715,0 -2.756,1.225 -4.536,2.722 C 317.503,428.438 306.87,432 300.196,432 294.845,432 288,429.148 288,426.918 288,426.413 287.074,426 285.943,426 c -1.925,0 -1.957,0.142 -0.5,2.223 0.856,1.222 1.557,2.52 1.557,2.884 0,0.364 -2.363,0.665 -5.25,0.668 -5.489,0.006 -15.025,-4.063 -22.75,-9.706 -4.089,-2.988 -3.868,-2.718 -8.963,-10.925 -3.844,-6.192 -3.93,-6.259 -3.334,-2.584 l 0.612,3.771 -2.645,-1.915 c -1.455,-1.054 -3.116,-3.596 -3.692,-5.649 -0.928,-3.313 -3.979,-6.433 -5.147,-5.264 -0.238,0.237 -2.625,-3.613 -5.305,-8.557 -5.408,-9.976 -7.526,-12.519 -7.526,-9.035 0,2.889 4.591,11.924 7.795,15.339 1.418,1.512 2.263,2.75 1.876,2.75 -0.886,0 -4.598,-4.157 -8.969,-10.044 -2.14,-2.881 -3.601,-6.2 -3.995,-9.073 -0.341,-2.492 -2.01,-8.098 -3.708,-12.457 -3.2,-8.213 -4.596,-13.384 -5.92,-21.926 -0.426,-2.75 -1.293,-6.267 -1.927,-7.815 -0.633,-1.548 -1.152,-4.334 -1.152,-6.191 0,-1.857 -0.45,-3.654 -1,-3.994 -0.55,-0.34 -1,-2.05 -1,-3.801 0,-1.75 -0.549,-6.674 -1.221,-10.941 -1.034,-6.572 -1.515,-7.758 -3.148,-7.758 -1.797,0 -1.885,-0.552 -1.299,-8.147 0.668,-8.665 1.071,-9.85 2.772,-8.149 0.76,0.76 0.756,1.265 -0.017,1.742 -0.598,0.37 -1.08,1.208 -1.072,1.863 0.011,0.798 0.299,0.743 0.875,-0.165 0.572,-0.903 1.224,0.769 1.951,5 1.673,9.741 3.768,20.112 4.558,22.568 0.391,1.217 0.2,3.168 -0.425,4.336 -0.625,1.168 -0.857,2.403 -0.515,2.744 0.341,0.341 0.89,-0.41 1.219,-1.67 0.887,-3.391 2.288,-0.594 2.307,4.604 0.009,2.516 0.848,5.55 2.074,7.5 l 2.059,3.274 -0.521,-9 c -0.744,-12.838 -1.565,-17.45 -3.006,-16.897 -0.821,0.316 -1.603,-1.885 -2.425,-6.819 -2.647,-15.907 -3.186,-22.713 -2.584,-32.66 0.461,-7.623 0.306,-10.575 -0.584,-11.125 -0.931,-0.576 -0.868,-1.527 0.276,-4.124 0.818,-1.856 2.714,-6.867 4.212,-11.135 1.715,-4.884 3.662,-8.498 5.254,-9.75 1.391,-1.095 2.054,-1.99 1.472,-1.99 -2.486,0 -6.87,5.155 -8.623,10.139 -1.037,2.949 -2.329,5.93 -2.872,6.626 -0.542,0.695 -1.584,3.837 -2.315,6.981 -1.161,4.992 -1.132,6.018 0.228,8.092 1.096,1.674 1.243,2.689 0.496,3.436 -0.747,0.747 -1.249,0.568 -1.7,-0.607 -1.235,-3.217 -2.656,-1.735 -1.997,2.083 1.894,10.964 1.885,11.342 -0.317,12.884 -1.195,0.837 -2.112,2.569 -2.112,3.988 0,1.38 -0.477,3.401 -1.06,4.49 -0.583,1.09 -1.393,3.873 -1.8,6.185 -0.697,3.959 -0.926,4.194 -3.963,4.053 -4.429,-0.206 -7.689,-2.579 -11.179,-8.137 -3.227,-5.138 -4.133,-9.4 -1.542,-7.249 0.801,0.664 1.99,0.878 2.643,0.475 0.791,-0.489 0.29,-1.203 -1.502,-2.142 -6.054,-3.172 -6.155,-15.028 -0.194,-22.628 1.117,-1.424 2.79,-1.825 7.524,-1.802 5.671,0.027 6.018,-0.101 5.073,-1.868 -1.555,-2.904 -5.118,-5.001 -8.473,-4.984 -4.302,0.022 -5.886,1.278 -5.027,3.985 0.487,1.533 0.361,2.032 -0.393,1.566 -0.686,-0.424 -1.113,0.194 -1.122,1.625 -0.009,1.27 -0.452,2.984 -0.985,3.809 -1.626,2.517 -1.208,-4.034 0.596,-9.328 1.887,-5.538 7.483,-10.672 11.632,-10.672 4.501,0 6.772,3.143 6.772,9.375 0,2.956 0.237,6.894 0.527,8.75 0.451,2.892 0.382,3.048 -0.481,1.089 -0.961,-2.18 -1.144,-2.215 -3.964,-0.757 -4.088,2.114 -4.654,3.454 -2.19,5.18 2.139,1.498 2.938,5.363 1.108,5.363 -0.55,0 -1,1.538 -1,3.418 0,1.88 -0.281,4.151 -0.624,5.045 -0.547,1.425 -0.802,1.373 -2.057,-0.418 -0.788,-1.125 -1.857,-2.045 -2.376,-2.045 -1.371,0 -1.156,2.75 0.307,3.926 0.688,0.552 2.884,2.37 4.882,4.039 5.836,4.877 7.398,3.882 3.964,-2.525 -1.567,-2.924 -1.724,-4.202 -0.888,-7.23 0.558,-2.023 1.84,-4.727 2.848,-6.008 1.008,-1.281 1.604,-2.923 1.326,-3.649 -0.279,-0.726 0.144,-2.876 0.939,-4.778 0.795,-1.903 2.006,-6.785 2.692,-10.85 0.685,-4.065 1.807,-8.299 2.493,-9.408 0.686,-1.109 1.801,-5.617 2.48,-10.017 0.678,-4.4 2.088,-10.7 3.134,-14 1.045,-3.3 2.383,-9.359 2.973,-13.464 0.737,-5.126 1.629,-7.853 2.848,-8.707 3.025,-2.119 4.413,-9.44 3.666,-19.34 -0.824,-10.916 0.537,-14.241 9.485,-23.161 3.25,-3.239 5.908,-6.319 5.908,-6.845 0,-0.526 1.575,-1.614 3.5,-2.419 3.389,-1.416 3.5,-1.633 3.5,-6.878 0,-6.168 2.189,-9.859 6.802,-11.467 l 2.813,-0.981 0.116,5.131 c 0.186,8.292 -0.335,9.631 -3.75,9.631 -2.336,0 -2.981,0.442 -2.981,2.045 0,1.817 0.418,1.97 3.75,1.369 4.656,-0.84 5.25,-1.174 5.25,-2.954 0,-0.782 1.125,-1.704 2.5,-2.049 1.375,-0.345 2.501,-0.917 2.502,-1.269 0.002,-0.353 1.396,-0.692 3.099,-0.753 2.262,-0.082 4.333,-1.35 7.691,-4.708 3.904,-3.903 4.228,-4.505 2.152,-3.994 -1.344,0.331 -2.963,1.006 -3.597,1.499 -0.782,0.609 -1.457,0.001 -2.1,-1.894 l -0.947,-2.792 -0.744,3.318 c -0.896,3.992 -2.405,4.721 -6.765,3.266 -2.45,-0.817 -3.727,-2.136 -4.997,-5.161 -1.26,-3.002 -2.2,-3.98 -3.596,-3.743 -2.591,0.438 -5.198,-1.941 -5.198,-4.743 0,-1.276 -0.45,-2.597 -1,-2.937 -0.566,-0.35 -1,0.479 -1,1.91 0,1.836 -0.41,2.37 -1.5,1.952 -2.217,-0.851 -1.821,0.554 0.75,2.662 l 2.25,1.845 -2.253,4.315 c -1.239,2.374 -2.251,4.809 -2.25,5.411 0.004,1.405 -3.293,4.405 -4.839,4.405 -0.864,0 -0.795,-0.932 0.253,-3.442 0.964,-2.305 1.086,-3.559 0.37,-3.798 -0.722,-0.24 -0.651,-1.135 0.222,-2.765 0.709,-1.326 1.252,-3.744 1.205,-5.374 -0.046,-1.63 0.782,-4.064 1.84,-5.41 1.059,-1.345 1.679,-2.843 1.379,-3.329 -1.097,-1.775 -3.253,-0.799 -5.899,2.67 l -2.709,3.551 -6.768,-0.667 c -5.493,-0.541 -7.261,-0.344 -9.378,1.043 -1.435,0.94 -3.153,1.528 -3.818,1.306 -0.665,-0.222 0.558,-1.451 2.718,-2.731 2.16,-1.281 6.402,-4.93 9.427,-8.11 3.198,-3.361 8.312,-7.279 12.218,-9.362 7.737,-4.125 7.933,-4.176 7.09,-1.832 -0.528,1.472 -0.245,1.415 1.782,-0.356 4.292,-3.75 9.136,-6.06 9.65,-4.602 0.335,0.951 0.802,1.003 1.773,0.197 1.005,-0.834 1.473,-0.607 1.97,0.956 0.639,2.014 5.013,3.892 6.23,2.675 0.341,-0.341 -0.355,-0.62 -1.546,-0.62 -1.645,0 -2.167,-0.603 -2.167,-2.5 0,-3.401 3.025,-6.165 8.193,-7.487 2.369,-0.605 6.158,-1.678 8.421,-2.384 l 4.115,-1.284 -1.822,3.078 c -1.002,1.692 -3.109,3.641 -4.682,4.33 -1.618,0.709 -3.861,3.098 -5.163,5.5 -1.267,2.336 -4.334,6.066 -6.816,8.29 -3.678,3.295 -4.381,4.457 -3.802,6.281 0.613,1.931 1.18,2.15 4.133,1.596 4.082,-0.766 4.229,-0.167 0.923,3.762 -1.419,1.687 -2.5,4.236 -2.5,5.895 0,3.835 1.881,3.766 2.654,-0.098 0.627,-3.135 2.346,-5.132 2.346,-2.725 0,2.145 5.641,7.136 6.498,5.749 0.871,-1.409 -1.269,-9.601 -3.359,-12.862 -1.402,-2.188 -1.376,-2.333 0.359,-1.999 1.029,0.198 3.026,2.332 4.437,4.742 1.411,2.41 3.915,5.113 5.565,6.006 1.65,0.894 5.353,3.495 8.229,5.78 4.94,3.925 5.425,4.096 8.75,3.075 3.918,-1.202 4.375,-2.148 1.771,-3.665 -2.134,-1.243 -1.102,-1.424 6.388,-1.119 2.831,0.115 5.438,-0.276 5.806,-0.87 0.367,-0.594 1.532,-1.543 2.589,-2.109 1.551,-0.83 1.81,-0.736 1.341,0.486 -0.341,0.887 0.103,1.778 1.069,2.149 1.146,0.439 2.731,-0.629 5.182,-3.492 1.942,-2.269 4.156,-4.125 4.919,-4.125 0.763,0 2.866,-0.653 4.672,-1.451 1.806,-0.798 6.306,-1.733 9.999,-2.076 4.851,-0.451 7.626,-1.298 10,-3.051 1.807,-1.335 3.96,-2.684 4.785,-2.997 0.825,-0.314 2.743,-2.6 4.263,-5.08 l 2.762,-4.51 -2.89,0.635 c -2.164,0.476 -3.837,-0.007 -6.653,-1.917 -2.068,-1.404 -4.834,-2.553 -6.146,-2.553 -1.572,0 -2.685,-0.788 -3.264,-2.31 -0.729,-1.918 -1.456,-2.244 -4.275,-1.914 -2.887,0.337 -3.578,0.001 -4.597,-2.237 -0.66,-1.448 -1.2,-2.769 -1.2,-2.935 0,-0.857 11.672,1.688 12.976,2.829 2.193,1.919 9.683,5.567 11.431,5.567 0.818,0 3.474,1.056 5.902,2.347 2.427,1.291 5.489,2.667 6.802,3.058 2.139,0.636 1.898,0.863 -2.312,2.169 -5.42,1.681 -7.114,3.426 -3.326,3.426 1.425,0 4.207,0.675 6.181,1.5 4.727,1.975 5.264,1.901 4.601,-0.635 -0.458,-1.748 -0.263,-1.969 1.073,-1.221 2.116,1.184 6.672,7.364 6.672,9.05 0,0.718 0.438,1.306 0.974,1.306 1.117,0 4.417,5.942 3.699,6.66 -0.261,0.262 -2.207,-1.374 -4.324,-3.633 -3.28,-3.502 -4.996,-4.394 -11.614,-6.04 -9.626,-2.394 -12.996,-1.817 -18.463,3.162 -2.671,2.433 -5.248,3.877 -7,3.921 -1.524,0.039 -3.509,0.376 -4.409,0.75 -1.551,0.644 -10.441,11.18 -9.433,11.18 2.047,0 5.901,-2.895 7.531,-5.658 1.812,-3.071 2.371,-3.342 6.906,-3.342 4.507,0 5.102,-0.282 6.858,-3.25 2.221,-3.756 10.651,-7.374 14.771,-6.34 1.358,0.34 6.245,3.988 10.86,8.105 4.615,4.117 9.084,7.485 9.932,7.485 3.122,0 9.497,8.838 11.773,16.321 1.2,3.949 3.028,8.582 4.061,10.297 2.269,3.767 2.375,6.027 0.378,8.025 -1.821,1.821 -1.953,5.504 -0.258,7.199 0.988,0.988 0.938,1.433 -0.25,2.183 -2.661,1.681 -3.483,0.432 -4.017,-6.103 -0.531,-6.485 -2.238,-10.785 -6.593,-16.605 -1.31,-1.751 -2.382,-3.828 -2.382,-4.615 0,-0.788 -0.877,-2.547 -1.948,-3.909 -1.158,-1.472 -1.728,-3.315 -1.406,-4.546 0.508,-1.946 0.71,-1.88 3.365,1.091 1.553,1.738 3.126,2.859 3.494,2.49 1.052,-1.051 -3.683,-6.828 -5.596,-6.828 -0.943,0 -3.927,-2.295 -6.631,-5.099 l -4.915,-5.1 -8.648,-0.539 -8.648,-0.54 -6.09,5.639 -6.091,5.639 h -6.821 c -5.19,0 -7.148,0.403 -8.193,1.687 -1.221,1.501 -1.152,1.599 0.628,0.887 4.313,-1.727 5.5,-1.801 5.5,-0.346 0,2.233 -3.347,4.772 -6.29,4.772 -1.448,0 -3.449,0.877 -4.448,1.949 -1.637,1.757 -2.736,1.89 -11.102,1.348 -8.035,-0.52 -9.093,-0.793 -7.86,-2.026 0.784,-0.783 3.286,-1.674 5.56,-1.979 3.224,-0.432 5.24,-1.642 9.144,-5.485 2.754,-2.711 5.664,-6.198 6.466,-7.749 0.802,-1.551 2.824,-3.969 4.494,-5.374 3.392,-2.855 3.739,-3.684 1.539,-3.684 -2.022,0 -9.599,6.944 -9.267,8.493 0.439,2.051 -10.733,10.504 -13.919,10.531 -2.11,0.017 -3.556,1.021 -5.759,4 -2.271,3.069 -3.639,3.993 -6,4.052 -4.004,0.1 -10.252,2.377 -8.868,3.233 0.594,0.367 2.488,0.176 4.208,-0.423 1.72,-0.6 3.909,-0.787 4.865,-0.417 1.611,0.625 1.597,0.777 -0.204,2.102 -2.726,2.007 -7.487,1.771 -11.309,-0.56 -3.433,-2.093 -3.727,-3.252 -2.34,-9.225 0.924,-3.977 0.149,-5.717 -3.374,-7.571 -1.562,-0.822 -2.548,-0.541 -4.826,1.376 -2.92,2.457 -5.71,3.17 -5.71,1.459 0,-0.523 0.784,-1.389 1.742,-1.925 0.958,-0.536 1.451,-1.265 1.097,-1.619 -1.101,-1.102 -4.723,1.799 -5.952,4.768 -0.645,1.555 -3.774,4.83 -6.954,7.277 -5.261,4.049 -6.285,4.449 -11.388,4.449 -4.031,0 -5.768,0.417 -6.176,1.482 -0.447,1.164 -1.007,1.247 -2.615,0.386 -1.807,-0.967 -1.982,-0.848 -1.494,1.019 0.322,1.229 0.069,2.155 -0.604,2.213 -2.576,0.222 4.144,1.708 8.144,1.8 4.403,0.102 9.151,-1.741 12.7,-4.932 1.1,-0.988 4.031,-2.096 6.514,-2.461 4.02,-0.591 4.924,-0.338 8.259,2.313 3.045,2.419 5.287,3.175 11.986,4.042 4.533,0.587 10.041,1.315 12.241,1.619 11.011,1.522 15.276,1.691 15.931,0.63 1.145,-1.852 4.011,-1.276 11.715,2.355 6.584,3.103 8.56,3.536 18.871,4.133 9.849,0.57 11.709,0.437 12.836,-0.922 1.701,-2.049 0.708,-3.637 -1.854,-2.966 -2.21,0.577 -2.732,-1.151 -0.728,-2.411 0.699,-0.44 1.789,-1.982 2.422,-3.426 1.025,-2.339 1.657,-2.605 5.761,-2.432 2.536,0.107 5.281,0.865 6.101,1.685 1.322,1.321 0.917,1.478 -3.55,1.376 -3.139,-0.071 -4.909,0.284 -4.689,0.942 0.194,0.58 1.751,0.911 3.462,0.736 2.693,-0.277 3.485,0.244 5.916,3.892 3.811,5.719 7.183,12.318 6.607,12.927 -0.523,0.552 -3.887,-3.31 -4.585,-5.263 -0.557,-1.558 -1.269,-0.882 -2.176,2.066 -0.566,1.841 0.026,2.995 2.954,5.756 2.015,1.9 4.562,3.936 5.66,4.523 1.828,0.979 1.899,0.886 0.841,-1.092 -0.637,-1.189 -0.932,-2.386 -0.657,-2.661 1.132,-1.132 2.802,4.112 2.249,7.061 -0.649,3.459 -3.161,7.61 -4.605,7.61 -0.498,0 -1.384,-1.781 -1.971,-3.958 -1.197,-4.447 -3.011,-6.275 -3.011,-3.035 0,4.745 3.807,8.909 8.191,8.961 1.48,0.018 2.969,0.482 3.309,1.032 0.34,0.55 2.011,1 3.713,1 3.93,0 10.787,-6.957 10.787,-10.944 0,-3.399 2.603,-7.056 5.022,-7.056 2.193,0 3.978,2.797 3.978,6.234 0,1.301 0.464,2.83 1.031,3.397 0.709,0.709 0.083,0.893 -2,0.587 -2.769,-0.407 -3.031,-0.775 -3.031,-4.272 0,-2.106 -0.474,-4.121 -1.054,-4.479 -0.688,-0.426 -1.01,1.026 -0.927,4.191 0.069,2.663 -0.204,5.93 -0.607,7.261 -0.769,2.536 -0.91,2.524 4.338,0.378 2.592,-1.059 1.16,3.631 -1.737,5.694 l -2.988,2.127 0.558,10.191 c 1.053,19.228 0.426,30.432 -1.634,29.16 -0.522,-0.323 -0.949,-2.103 -0.949,-3.957 0,-1.853 -0.676,-4.045 -1.502,-4.871 -1.152,-1.152 -1.268,-2.115 -0.5,-4.136 0.551,-1.45 0.936,-5.418 0.855,-8.82 l -0.147,-6.185 -0.782,5.5 c -0.868,6.112 -2.306,13.386 -4.48,22.664 -2.033,8.676 -2.002,37.756 0.045,42.655 0.999,2.391 1.282,5.073 0.86,8.15 -0.897,6.547 -2.349,6.639 -2.349,0.149 0,-5.303 -1.141,-7.816 -2.53,-5.57 -0.367,0.595 -0.887,4.765 -1.154,9.267 -0.268,4.502 -1.102,10.21 -1.854,12.685 -0.752,2.475 -1.878,7.425 -2.502,11 -0.625,3.575 -1.52,6.965 -1.991,7.534 -0.471,0.569 -1.307,3.835 -1.858,7.258 -0.551,3.423 -1.26,6.64 -1.574,7.149 -0.315,0.509 -0.98,2.868 -1.477,5.242 -1.347,6.425 -7.398,22.079 -9.885,25.571 -1.196,1.68 -2.175,3.555 -2.175,4.167 0,0.612 -1.955,4.368 -4.344,8.346 -8.407,13.996 -7.872,11.329 -8.174,40.733 -0.224,21.82 -0.656,28.706 -2.445,38.991 -1.807,10.392 -2.125,15.6 -1.89,31 0.156,10.18 0.164,23.121 0.018,28.759 -0.25,9.672 -0.152,10.25 1.735,10.25 1.727,0 2.05,-0.787 2.361,-5.75 l 0.361,-5.75 0.189,5.75 c 0.104,3.163 0.59,5.75 1.08,5.75 1.665,0 1.826,-7.462 0.823,-38.075 -0.551,-16.816 -0.684,-32.272 -0.295,-34.347 0.639,-3.402 0.874,-3.635 2.395,-2.369 2.266,1.887 7.186,3.936 7.186,2.992 0,-0.415 -1.35,-1.94 -3,-3.388 -3.119,-2.737 -3.676,-6.181 -2.132,-13.172 l 0.632,-2.859 3.253,4.054 c 1.789,2.23 4.645,4.867 6.347,5.859 2.898,1.692 14.9,18.065 14.9,20.328 0,0.569 1.417,3.834 3.149,7.256 4.406,8.707 7.092,29.66 5.037,39.297 -0.963,4.517 -0.959,4.528 1.073,2.73 2.027,-1.794 2.036,-1.775 1.435,2.757 -0.741,5.592 0.036,8.937 2.075,8.937 1.339,0 1.459,-1.838 0.93,-14.25 -0.795,-18.697 -3.38,-33.695 -7.358,-42.7 -4,-9.054 -14.177,-24.688 -17.938,-27.557 -4.858,-3.705 -3.533,-4.278 2.815,-1.217 6.897,3.326 7.459,3.506 19.782,6.326 16.587,3.797 21.582,5.417 19.929,6.463 -2.412,1.526 -5.172,1.055 -11.586,-1.979 l -6.157,-2.913 -2.267,2.413 c -2.714,2.889 -4.919,3.127 -4.919,0.531 0,-1.101 0.916,-2.123 2.206,-2.461 2.799,-0.732 2.231,-1.221 -2.387,-2.056 l -3.682,-0.665 0.415,3.283 c 0.684,5.412 6.169,7.802 8.68,3.782 1.616,-2.588 2.536,-2.522 6.983,0.5 2.842,1.931 4.953,2.5 9.282,2.5 3.081,0 6.817,0.622 8.303,1.383 1.485,0.761 6.92,2.532 12.078,3.935 6.562,1.786 10.239,3.378 12.249,5.303 2.332,2.235 4.024,2.835 9.012,3.195 4.077,0.295 5.925,0.097 5.501,-0.59 -0.352,-0.569 -2.951,-1.052 -5.776,-1.074 -4.192,-0.032 -5.658,-0.538 -7.965,-2.749 -3.817,-3.657 -2.74,-4.754 2.39,-2.435 2.316,1.047 8.74,3.958 14.274,6.468 5.535,2.51 10.654,4.564 11.377,4.564 0.722,0 5.496,2.262 10.608,5.026 7.94,4.293 11.4,7.102 23.713,19.25 10.201,10.064 15.196,15.783 17.078,19.556 1.464,2.933 2.661,5.97 2.661,6.75 0,0.846 1.009,1.418 2.5,1.418 1.375,0 2.493,-0.112 2.485,-0.25 -0.032,-0.53 -2.743,-7.437 -4.417,-11.25 -2.102,-4.79 -30.177,-32.907 -36.117,-36.171 -6.171,-3.391 -21.529,-10.957 -25.951,-12.784 -2.2,-0.91 -5.214,-2.316 -6.699,-3.126 -3.005,-1.639 -9.72,-4.197 -14.301,-5.448 -1.65,-0.45 -6.375,-2.017 -10.5,-3.482 -4.125,-1.465 -9.525,-3.236 -12,-3.935 -17.133,-4.838 -21.217,-5.92 -27,-7.155 -3.575,-0.764 -11.222,-2.854 -16.993,-4.644 -9.756,-3.027 -10.931,-3.679 -16.75,-9.298 -7.27,-7.022 -7.141,-6.295 -4.744,-26.652 1.756,-14.911 1.867,-15.252 8.138,-24.887 8.491,-13.046 11.739,-20.815 17.318,-41.418 3.884,-14.343 5.421,-18.96 7.157,-21.5 3.933,-5.752 7.104,-19.003 8.959,-37.43 1.048,-10.416 1.006,-10.955 -1.062,-13.753 -2.106,-2.849 -2.116,-3.022 -0.462,-8.114 0.929,-2.862 2.442,-6.103 3.362,-7.203 0.92,-1.1 2.497,-4.475 3.504,-7.5 1.008,-3.025 4.074,-10.117 6.814,-15.76 3.88,-7.991 5.164,-11.885 5.806,-17.608 0.88,-7.85 -0.232,-24.231 -1.853,-27.285 -0.934,-1.759 -3.643,-14.69 -6.253,-29.847 -1.803,-10.465 -2.849,-14.265 -4.338,-15.754 -0.739,-0.739 -2.076,-2.759 -2.97,-4.489 -0.895,-1.73 -3.904,-5.882 -6.687,-9.226 -2.783,-3.344 -6.567,-8.856 -8.41,-12.249 -4.896,-9.016 -8.409,-12.074 -19.346,-16.839 -5.329,-2.323 -12.271,-5.513 -15.425,-7.09 -7.94,-3.969 -13.322,-5.675 -20.297,-6.434 -3.282,-0.357 -8.63,-1.497 -11.883,-2.534 -7.778,-2.479 -18.953,-2.263 -32.662,0.629 M 308,88.5 c 3.025,0.812 6.738,1.482 8.25,1.488 1.512,0.007 2.75,0.376 2.75,0.821 0,0.445 2.137,1.547 4.75,2.448 12.264,4.231 15.215,5.536 18.198,8.046 1.763,1.483 3.733,2.711 4.379,2.729 0.645,0.017 0.317,0.679 -0.728,1.471 -1.714,1.297 -2.236,1.145 -5.285,-1.532 -2.435,-2.138 -4.425,-2.977 -7.099,-2.993 -2.043,-0.012 -5.628,-0.89 -7.965,-1.951 -4.812,-2.184 -5.222,-1.702 -1.828,2.152 1.984,2.252 3.491,2.79 9.469,3.379 3.91,0.385 7.109,0.951 7.109,1.257 0,0.306 -1.012,1.67 -2.25,3.031 -2.083,2.291 -2.102,2.415 -0.25,1.673 1.1,-0.441 3.35,-1.017 5,-1.279 1.65,-0.263 3.933,-1.328 5.074,-2.368 3.569,-3.252 4.913,0.641 1.426,4.128 -1.336,1.336 -3.333,2 -6.014,2 -2.207,0 -4.795,0.397 -5.75,0.883 -6.615,3.362 -13.574,5.281 -17.012,4.69 -2.048,-0.352 -7.324,-0.853 -11.724,-1.112 -7.192,-0.425 -8.479,-0.214 -12.75,2.096 -5.346,2.89 -6.546,1.55 -2.062,-2.303 3.435,-2.952 6.32,-3.65 12.2,-2.954 4.449,0.527 8.349,-0.423 6.469,-1.575 -0.471,-0.289 -3.332,-0.818 -6.357,-1.175 -5.291,-0.626 -5.718,-0.494 -11.25,3.479 -4.699,3.374 -5.75,4.652 -5.75,6.991 0,3.153 1.48,4.779 2.331,2.56 0.797,-2.078 10.109,-3.777 18.669,-3.405 6.977,0.302 7.523,0.487 7.829,2.65 0.321,2.262 0.261,2.28 -2.177,0.683 -2.093,-1.372 -3.136,-1.454 -6.329,-0.501 -2.103,0.628 -6.523,1.538 -9.823,2.023 -3.3,0.484 -7.457,1.176 -9.238,1.537 -3.435,0.696 -3.488,0.641 -4.768,-5.067 l -0.673,-3 -1.271,3 c -0.7,1.65 -1.083,3.338 -0.852,3.75 0.77,1.375 -0.558,0.776 -5.148,-2.321 -4.011,-2.707 -4.552,-3.506 -4.564,-6.75 -0.021,-5.626 -0.985,-8.425 -2.475,-7.188 -0.883,0.733 -1.611,0.593 -2.501,-0.479 -0.69,-0.831 -0.975,-1.512 -0.632,-1.512 1.715,0 2.274,-0.255 4.122,-1.876 3.234,-2.838 7.303,-5.124 9.12,-5.124 1.574,0 1.576,0.126 0.035,1.829 -0.968,1.069 -1.698,3.665 -1.757,6.25 l -0.103,4.421 -0.817,-3.475 c -0.45,-1.912 -0.605,-3.819 -0.346,-4.239 0.26,-0.42 -0.226,-0.495 -1.08,-0.168 -1.851,0.711 -1.859,1.125 -0.165,9.014 0.724,3.373 2.225,7.108 3.335,8.3 l 2.02,2.168 -0.456,-2.386 c -0.364,-1.902 0.552,-3.229 4.518,-6.55 2.735,-2.29 5.268,-4.164 5.627,-4.164 1.886,0 11.649,-8.34 11.378,-9.718 -0.786,-3.987 -7.18,-4.184 -9.582,-0.296 -1.122,1.816 -1.003,2.164 1,2.923 l 2.273,0.862 -2.754,1.277 c -3.25,1.506 -3.299,1.47 -4.105,-3.048 -0.567,-3.175 -0.302,-3.72 2.85,-5.867 3.039,-2.071 4.171,-2.281 9.024,-1.674 5.869,0.733 9.485,3.31 9.485,6.761 0,1.888 -0.326,2.086 -5.5,3.341 l -3,0.727 3.5,0.788 c 1.925,0.434 4.85,1.007 6.5,1.274 1.65,0.267 3.225,0.529 3.5,0.583 0.275,0.054 -0.175,0.568 -1,1.143 -1.105,0.77 -0.578,0.869 2,0.375 1.925,-0.369 3.725,-0.707 4,-0.751 0.275,-0.045 1.952,0.263 3.728,0.684 3.349,0.794 7.272,0.079 7.272,-1.326 0,-1.085 -5.83,-2.446 -9.25,-2.16 -3.081,0.258 -3.529,-1.284 -1.25,-4.295 0.79,-1.044 1.148,-2.364 0.795,-2.934 -0.371,-0.6 -0.911,-0.263 -1.285,0.802 -0.605,1.724 -0.773,1.7 -2.722,-0.392 -1.317,-1.414 -2.32,-1.836 -2.741,-1.154 -1.062,1.718 -2.141,1.261 -3.365,-1.425 -1.006,-2.208 -0.908,-2.5 0.839,-2.5 2.931,0 2.4,-1.583 -1.003,-2.993 -4.796,-1.986 -16.287,-0.924 -20.044,1.854 -1.711,1.265 -3.733,2.062 -4.494,1.77 -0.76,-0.292 -4.095,0.572 -7.411,1.919 -6.373,2.59 -10.069,3.117 -10.069,1.435 0,-0.558 1.462,-1.89 3.25,-2.96 1.788,-1.07 4.301,-2.864 5.585,-3.985 1.284,-1.122 2.949,-2.04 3.7,-2.04 0.751,0 1.725,-0.625 2.165,-1.389 0.44,-0.763 1.7,-1.611 2.8,-1.884 4.246,-1.052 15.247,-0.637 20.5,0.773 m -63.892,18.869 c -0.702,0.846 -4.06,1.557 -8.783,1.861 -8.57,0.55 -10.275,1.752 -9.544,6.732 0.493,3.356 0.93,3.574 3.397,1.699 1.15,-0.875 1.391,-1.73 0.765,-2.719 -1.728,-2.732 -0.928,-3.442 3.958,-3.513 3.953,-0.057 4.788,0.218 4.325,1.424 -0.414,1.08 -0.11,1.316 1.1,0.852 0.921,-0.353 1.674,-0.206 1.674,0.326 0,1.392 7.371,1.198 8.8,-0.231 0.933,-0.933 1.2,-0.761 1.2,0.777 0,1.088 -1.35,3.162 -3,4.61 -2.826,2.48 -3.92,4.819 -2.25,4.808 0.412,-0.002 2.213,-1.375 4,-3.05 3.205,-3.004 4.108,-6.545 2.643,-10.363 -0.674,-1.756 -3.928,-2.143 -4.893,-0.582 -0.34,0.55 -1.57,1 -2.733,1 -2.092,0 -2.089,-0.028 0.233,-2.5 1.292,-1.375 1.875,-2.5 1.297,-2.5 -0.579,0 -1.564,0.616 -2.189,1.369 M 228,129.5 c 0,1.921 -0.521,2.504 -2.25,2.515 -1.777,0.012 -1.941,0.211 -0.779,0.946 0.809,0.512 1.259,1.127 1,1.366 -2.165,2.006 -14.191,10.775 -14.414,10.511 -0.157,-0.186 -0.813,-1.35 -1.457,-2.588 -0.962,-1.849 -0.906,-2.25 0.315,-2.25 0.817,0 1.944,0.787 2.505,1.75 0.931,1.598 1.022,1.572 1.05,-0.3 0.037,-2.532 -1.774,-4.45 -4.201,-4.45 -2.624,0 -3.16,2.343 -1.341,5.86 2.104,4.069 1.999,4.615 -0.92,4.784 -2.058,0.118 -2.686,-0.506 -3.609,-3.588 -0.915,-3.051 -0.825,-4.298 0.491,-6.844 0.886,-1.712 1.61,-3.833 1.61,-4.713 0,-1.983 6.265,-4.721 9.853,-4.305 1.917,0.221 2.74,0.964 2.984,2.693 0.392,2.769 -1.685,4.484 -3.553,2.933 -0.894,-0.742 -1.284,-0.745 -1.284,-0.01 0,1.777 4.1,2.475 6.619,1.126 1.31,-0.701 2.381,-2.072 2.381,-3.048 0,-0.976 1,-2.475 2.223,-3.331 2.836,-1.987 2.777,-2.007 2.777,0.943 m 146.258,1.072 c 5.584,1.903 10.681,7.73 9.025,10.317 -0.768,1.201 -0.526,2.326 0.952,4.419 1.091,1.544 1.745,3.045 1.454,3.336 -0.291,0.291 -1.287,-0.627 -2.213,-2.04 -3.627,-5.535 -12.055,-8.165 -21.476,-6.702 -4.182,0.65 -11,-1.118 -11,-2.851 0,-0.774 7.636,-4.051 9.439,-4.051 0.785,0 1.688,0.825 2.008,1.833 0.32,1.009 1.257,1.834 2.082,1.834 0.999,0 1.306,-0.612 0.918,-1.834 C 364.983,133.372 365.4,133 367.5,133 c 2.18,0 2.525,-0.345 2,-2 -0.762,-2.4 -0.974,-2.381 4.758,-0.428 m -139.98,14.614 c 3.1,1.594 0.751,3.09 -3.859,2.458 -5.009,-0.687 -14.44,2.643 -11.107,3.922 0.975,0.374 4.003,0.466 6.73,0.204 2.727,-0.262 4.958,-0.104 4.958,0.351 0,1.224 -5.629,3.917 -6.457,3.089 -0.39,-0.39 -0.619,-0.26 -0.508,0.29 0.452,2.237 -0.099,4.5 -1.094,4.5 -0.582,0 -0.817,-0.392 -0.521,-0.871 0.296,-0.479 -0.413,-1.941 -1.575,-3.25 -1.57,-1.767 -2.24,-2.025 -2.605,-1.004 -0.689,1.932 -4.023,5.125 -5.351,5.125 -1.494,0 -0.278,-6.317 2.12,-11.017 1.013,-1.986 2.888,-4.09 4.166,-4.676 2.528,-1.157 12.24,-0.592 15.103,0.879 m 129.547,-1.162 c -0.187,0.563 -3.487,2.407 -7.333,4.098 -13.362,5.875 -17.997,8.23 -18.792,9.55 -0.906,1.505 -4.509,1.735 -6.585,0.42 -1.111,-0.703 -0.976,-1.096 0.684,-1.985 1.138,-0.609 2.682,-1.107 3.432,-1.107 0.749,0 3.816,-1.563 6.815,-3.474 3,-1.911 6.021,-3.486 6.715,-3.5 0.693,-0.014 3.168,-0.895 5.5,-1.957 3.767,-1.716 6.444,-2.587 9.072,-2.953 0.459,-0.064 0.68,0.345 0.492,0.908 m 8.217,2.917 c -2.203,3.094 -5.291,4.626 -8.402,4.169 -1.023,-0.15 -3.048,0.817 -4.5,2.149 -3.534,3.242 -8.171,4.96 -12.271,4.544 -3.283,-0.332 -3.192,-0.424 3.585,-3.602 3.825,-1.793 7.65,-3.865 8.5,-4.604 0.85,-0.739 3.188,-1.638 5.196,-1.997 2.007,-0.359 4.199,-1.316 4.872,-2.126 0.673,-0.811 2.098,-1.474 3.169,-1.474 1.893,0 1.889,0.078 -0.149,2.941 m 10.326,2.104 c 0.989,1.675 3.332,4.038 5.206,5.25 5.312,3.437 7.77,9.659 7.163,18.138 -0.403,5.628 -0.923,7.299 -2.728,8.761 -2.384,1.931 -4.517,2.437 -3.529,0.839 0.329,-0.533 -1.189,-2.583 -3.374,-4.556 -3.504,-3.166 -5.953,-8.216 -5.258,-10.843 0.126,-0.477 -0.463,-1.923 -1.309,-3.215 -2.273,-3.47 -1.99,-5.34 0.711,-4.69 1.717,0.414 1.242,-0.339 -2.007,-3.178 -2.342,-2.045 -4.002,-4.131 -3.691,-4.635 0.974,-1.576 3.724,-1.005 6.153,1.277 l 2.334,2.192 -1.593,-3.192 c -0.876,-1.756 -2.01,-3.193 -2.519,-3.193 -0.51,0 -0.927,-0.45 -0.927,-1 0,-2.212 3.682,-0.809 5.368,2.045 m -182.857,4.326 c -3.14,3.838 -5.024,7.449 -4.278,8.196 0.605,0.605 7.286,-5.935 9.842,-9.635 1.046,-1.513 2.144,-2.062 3.266,-1.631 1.364,0.523 1.575,1.475 1.091,4.924 -0.329,2.351 -0.851,4.95 -1.159,5.775 -0.308,0.825 -0.471,2.645 -0.363,4.044 0.261,3.362 -1.641,8.24 -2.908,7.457 -0.551,-0.34 -1.002,-1.662 -1.002,-2.938 0,-2.722 -3.063,-5.841 -3.746,-3.813 -0.231,0.688 -1.268,1.25 -2.303,1.25 -2.774,0 -8.714,5.643 -9.445,8.973 -0.349,1.589 -1.281,3.425 -2.07,4.08 -0.79,0.656 -1.422,1.924 -1.404,2.819 0.028,1.445 0.181,1.431 1.36,-0.122 0.731,-0.963 1.616,-1.75 1.968,-1.75 1.057,0 0.723,2.894 -0.572,4.968 -2.202,3.525 0.351,3.599 3.289,0.095 3.056,-3.646 4.866,-3.694 2.931,-0.078 -1.149,2.148 -1.142,2.149 1.596,0.355 l 2.75,-1.802 -0.663,2.481 c -0.365,1.365 -0.67,2.982 -0.677,3.593 -0.008,0.612 -1.192,0.984 -2.631,0.826 -1.792,-0.197 -3.392,0.548 -5.074,2.363 -1.357,1.464 -1.973,2.811 -1.376,3.01 0.594,0.198 0.811,0.795 0.482,1.326 -0.984,1.593 -0.673,19.842 0.361,21.151 0.914,1.158 0.784,8.486 -0.168,9.438 -0.251,0.25 0.192,2.289 0.983,4.531 0.791,2.242 1.176,4.901 0.856,5.91 -1.155,3.639 -3.227,1.737 -5.371,-4.93 -1.944,-6.045 -2.118,-8.236 -1.639,-20.631 0.312,-8.085 1.009,-14.439 1.672,-15.237 1.073,-1.294 0.257,-1.846 -2.252,-1.523 -0.353,0.045 -0.864,-0.766 -1.135,-1.802 -0.365,-1.393 0.181,-2.054 2.091,-2.533 l 2.585,-0.649 -3.199,-2.503 C 180.845,187.516 180,186.048 180,183.8 c 0,-3.428 5.697,-15.747 7.625,-16.486 0.687,-0.264 1.018,-1.23 0.736,-2.147 -0.39,-1.27 -0.228,-1.222 0.68,0.203 0.964,1.512 1.357,1.608 2.053,0.5 0.473,-0.754 0.634,-2.098 0.358,-2.988 -1.153,-3.712 6.199,-14.337 9.14,-13.208 1.197,0.459 0.99,1.164 -1.081,3.697 m 183.739,6.66 c -3.08,1.238 -2.831,2.424 1.146,5.458 2.258,1.722 3.614,3.749 4.045,6.05 1.004,5.351 2.559,4.09 2.559,-2.074 0,-5.572 -2.08,-10.529 -4.365,-10.402 -0.624,0.035 -2.147,0.471 -3.385,0.968 M 213.978,172.78 c -1.088,2.03 -1.982,4.147 -1.988,4.705 -0.005,0.558 -1.615,3.035 -3.577,5.504 -3.537,4.449 -3.562,4.549 -2.872,11.42 0.383,3.812 1.088,8.299 1.568,9.971 1.445,5.037 -0.714,5.221 -2.623,0.223 -1.174,-3.074 -1.586,-6.207 -1.262,-9.585 0.487,-5.066 0.074,-5.916 -1.911,-3.931 -0.7,0.7 -1.305,0.735 -1.697,0.1 -0.545,-0.881 9.378,-17.022 13.163,-21.413 2.502,-2.902 3.297,-0.908 1.199,3.006 m 0.561,13.97 c -0.359,7.43 -1.287,12.091 -2.787,13.989 -1.824,2.308 -2.752,0.167 -2.752,-6.35 0,-4.899 0.552,-7.46 2.25,-10.433 1.238,-2.167 2.557,-3.944 2.932,-3.948 0.375,-0.005 0.536,3.029 0.357,6.742 m 130.705,6.914 c -2.16,0.871 -0.272,2.336 3.011,2.336 5.435,0 11.48,5.193 15.715,13.5 1.174,2.301 2.52,3.208 5.78,3.892 3.861,0.811 4.358,1.267 5.442,5 0.977,3.363 1.263,3.687 1.58,1.785 0.212,-1.277 0.138,-2.969 -0.166,-3.76 -0.303,-0.791 -0.451,-1.698 -0.329,-2.016 0.123,-0.317 -2.027,-1.352 -4.777,-2.298 -3.687,-1.27 -5.36,-2.494 -6.372,-4.662 -0.754,-1.618 -4.008,-5.529 -7.232,-8.691 -5.734,-5.627 -8.527,-6.749 -12.652,-5.086 m -149.937,11.094 c 0.666,6.563 2.87,14.482 3.407,12.242 0.197,-0.825 1.805,-2.521 3.572,-3.769 2.815,-1.987 3.257,-2.064 3.563,-0.618 0.468,2.216 -1.894,6.477 -3.158,5.696 -0.661,-0.409 -0.801,1.836 -0.407,6.534 0.33,3.936 0.41,7.157 0.178,7.157 -0.849,0 -4.462,-7.978 -4.462,-9.853 0,-1.063 -0.725,-2.211 -1.611,-2.551 -1.153,-0.443 -1.447,-0.189 -1.032,0.893 0.825,2.15 -1.977,1.916 -2.861,-0.239 -1.01,-2.459 -1.896,-19.764 -1.117,-21.796 1.197,-3.12 3.316,0.28 3.928,6.304 M 413,205.652 c 0,1.291 -0.505,2.348 -1.122,2.348 -0.789,0 -0.762,0.435 0.091,1.462 1.375,1.657 0.262,8.485 -2.369,14.538 l -1.522,3.5 -0.039,-3.191 c -0.021,-1.755 0.411,-3.469 0.961,-3.809 1.691,-1.045 1.109,-2.5 -1,-2.5 -2.565,0 -2.608,-2.715 -0.087,-5.436 1.95,-2.103 2.416,-3.578 2.205,-6.969 -0.114,-1.841 -0.185,-1.845 -2.118,-0.095 -1.627,1.472 -2,1.532 -2,0.322 0,-2.162 0.837,-2.693 4.097,-2.6 2.356,0.067 2.903,0.525 2.903,2.43 M 253,218 c -1.375,0.44 -5.961,0.845 -10.191,0.9 -4.23,0.055 -7.948,0.515 -8.261,1.023 -0.314,0.508 -1.915,1.218 -3.558,1.579 -3.117,0.685 -6.517,4.371 -5.225,5.663 0.41,0.41 2.544,0.354 4.741,-0.127 16.374,-3.579 29.643,-2.776 41.411,2.505 5.215,2.341 6.886,2.638 11.662,2.077 6.995,-0.822 12.596,0.601 13.922,3.537 1.443,3.196 3.924,3.787 2.989,0.711 -0.981,-3.227 -3.978,-6.331 -9.591,-9.933 -4.635,-2.974 -10.025,-4.425 -20.862,-5.617 -3.005,-0.331 -6.074,-1.212 -6.821,-1.959 C 261.744,216.887 256.995,216.721 253,218 m 86.743,9.818 c -4.119,1.053 -8.777,3.741 -10.456,6.033 -3.667,5.006 -10.202,19.671 -9.881,22.172 0.492,3.837 1.748,8.226 3.157,11.027 1.006,2.002 2.125,2.6 5.211,2.782 4.114,0.242 9.226,-1.199 9.226,-2.603 0,-0.451 -1.462,-0.927 -3.25,-1.058 -1.788,-0.13 -4.15,-0.413 -5.25,-0.627 -1.1,-0.215 -2.319,-0.425 -2.71,-0.467 -1.182,-0.128 -2.99,-7.412 -2.629,-10.588 0.242,-2.119 1.173,-3.372 3.239,-4.358 2.48,-1.184 2.661,-1.517 1.25,-2.307 -2.146,-1.201 -2.081,-1.985 0.389,-4.635 1.721,-1.848 1.786,-2.189 0.417,-2.189 -2.433,0 -1.204,-2.302 2.118,-3.966 2.139,-1.071 5.752,-1.393 13.426,-1.196 13.38,0.344 27.83,1.798 29.335,2.952 0.641,0.491 3.19,1.651 5.665,2.576 l 4.5,1.684 -3.5,-3.055 c -7.163,-6.253 -19.872,-11.104 -31.257,-11.931 -4.266,-0.31 -8.316,-0.421 -9,-0.246 m 26.514,0.772 c 0.324,0.324 2.986,2.101 5.916,3.948 9.696,6.113 12.931,8.65 12.512,9.813 -0.228,0.632 0.058,2.049 0.635,3.149 0.578,1.1 1.393,3.575 1.812,5.5 0.539,2.478 0.697,1.216 0.541,-4.325 -0.253,-9.038 -0.455,-9.292 -12.057,-15.181 -6.03,-3.06 -11.084,-4.628 -9.359,-2.904 m -70.198,15.544 c -1.591,2.152 -2.123,3.978 -1.8,6.179 0.694,4.727 -0.994,9.362 -4.254,11.684 -1.609,1.145 -3.901,3.453 -5.094,5.128 -2.004,2.814 -2.045,3.169 -0.54,4.675 1.505,1.505 1.629,1.488 1.629,-0.218 0,-2.141 6.451,-8.582 8.596,-8.582 0.816,0 1.718,1.318 2.054,3 0.715,3.577 1.657,3.803 3.13,0.75 1.032,-2.141 1.088,-2.099 1.152,0.878 0.038,1.72 -0.563,3.651 -1.335,4.291 -1.446,1.201 -4.214,17.274 -3.244,18.843 1.412,2.286 -4.447,14.32 -8.053,16.538 -0.715,0.44 -1.3,1.227 -1.3,1.75 0,1.443 3.29,1.136 5.666,-0.529 1.915,-1.341 2.158,-1.304 2.603,0.401 0.271,1.034 1.335,2.331 2.366,2.882 1.756,0.94 1.881,0.492 2,-7.15 0.252,-16.19 0.378,-17.808 1.55,-19.965 1.971,-3.623 3.749,-21.467 2.859,-28.689 -0.808,-6.559 -3.045,-13.264 -4.783,-14.339 -0.519,-0.32 -1.959,0.792 -3.202,2.473 m -34.524,0.818 c 1.119,0.453 2.635,1.547 3.368,2.431 1.121,1.351 1.072,2.007 -0.308,4.112 -2.212,3.376 -9.902,3.667 -11.629,0.441 -0.821,-1.534 -0.797,-2.435 0.093,-3.507 1.02,-1.229 1.556,-1.058 3.607,1.155 1.977,2.134 2.675,2.378 3.897,1.363 1.282,-1.064 1.296,-1.528 0.099,-3.341 -2.709,-4.101 -15.905,-2.518 -21.33,2.56 -1.705,1.595 -2.88,1.876 -5.5,1.316 -1.833,-0.392 -3.905,-1.175 -4.606,-1.74 -2.104,-1.696 -2.685,0.093 -0.732,2.252 2.24,2.474 11.059,2.812 14.065,0.538 2.691,-2.035 5.811,-1.886 7.858,0.377 4.442,4.908 12.841,5.121 16.54,0.419 1.124,-1.429 2.043,-3.26 2.043,-4.07 0,-1.018 0.54,-1.243 1.75,-0.73 0.962,0.408 3.112,1.244 4.777,1.857 1.665,0.613 4.107,2.122 5.426,3.354 2.438,2.274 5.834,3.807 6.643,2.999 0.245,-0.245 -1.503,-2.241 -3.885,-4.436 -3.101,-2.859 -6.342,-4.603 -11.425,-6.147 -6.982,-2.12 -15.315,-3.053 -10.751,-1.203 m 77.817,1.985 c -1.181,0.507 -2.492,1.481 -2.914,2.163 -0.562,0.909 -0.255,1.024 1.148,0.431 4.155,-1.756 13.483,-1.775 19.697,-0.04 7.64,2.133 10.679,3.659 15.204,7.631 1.932,1.697 3.513,2.537 3.513,1.866 0,-2.289 -7.203,-7.82 -12.855,-9.871 -6.324,-2.294 -20.505,-3.594 -23.793,-2.18 m 3.398,5.143 c -2.823,1.645 -2.296,7.509 0.945,10.513 2.26,2.094 3.51,2.45 7.735,2.202 4.444,-0.26 5.279,-0.675 7.055,-3.506 1.108,-1.767 2.351,-3.229 2.762,-3.25 0.411,-0.022 2.49,1.536 4.62,3.46 2.13,1.924 5.383,3.801 7.228,4.17 l 3.354,0.671 -5.002,-4.42 c -9.618,-8.498 -23.077,-13.113 -28.697,-9.84 m 11.81,3.371 c 3.166,4.832 -1.519,9.256 -7.106,6.71 -3.256,-1.484 -4.365,-6.022 -1.91,-7.817 2.986,-2.183 7.199,-1.666 9.016,1.107 m -32.916,29.132 c -1.514,11.044 0.619,20.044 5.589,23.583 2.337,1.664 2.772,2.698 2.799,6.652 0.029,4.334 0.141,4.538 1.5,2.741 0.807,-1.068 1.465,-2.868 1.46,-4 -0.013,-3.642 -3.826,-14.751 -5.813,-16.939 -1.303,-1.433 -2.102,-4.182 -2.468,-8.486 -0.689,-8.087 -2.205,-9.843 -3.067,-3.551 m -32.239,9.391 c -2.497,1.009 -7.928,7.641 -9.375,11.447 -2.652,6.974 -0.273,13.517 6.654,18.305 3.536,2.445 4.989,2.961 5.992,2.128 2.043,-1.696 1.641,-2.329 -2.691,-4.241 -4.51,-1.989 -6.987,-5.826 -6.981,-10.813 0.004,-3.909 2.249,-7.751 7.916,-13.55 4.178,-4.275 3.67,-5.373 -1.515,-3.276 m 30.242,24.62 c -2.295,1.559 -4.616,2.386 -5.817,2.072 -1.329,-0.348 -3.024,0.457 -5.062,2.406 L 305.703,326 h 2.559 c 1.407,0 5.411,-1.35 8.898,-2.999 3.487,-1.65 7.052,-3 7.923,-3 2.308,-10e-4 3.061,-1.123 1.786,-2.659 -1.588,-1.914 -2.898,-1.686 -7.222,1.252 m -30.157,12.422 c -0.346,0.559 -1.047,0.758 -1.559,0.441 -0.512,-0.316 -0.931,-0.098 -0.931,0.484 0,0.582 -0.9,1.059 -2,1.059 -1.1,0 -2,0.427 -2,0.949 0,0.522 -1.298,2.21 -2.884,3.75 -2.214,2.149 -3.017,4.022 -3.453,8.051 -0.313,2.887 -0.397,5.25 -0.187,5.25 0.737,0 6.578,-9.193 7.993,-12.579 0.957,-2.291 2.095,-3.421 3.445,-3.421 1.717,0 4.086,-2.571 4.086,-4.434 0,-0.957 -1.845,-0.626 -2.51,0.45 m -1.699,20.372 c -9.507,1.695 -9.642,2.81 -0.248,2.05 6.034,-0.489 9.045,-0.26 12.457,0.944 2.475,0.874 7.297,1.595 10.715,1.603 3.418,0.008 8.299,0.722 10.845,1.587 2.546,0.864 4.816,1.385 5.044,1.157 0.228,-0.227 -2.371,-1.874 -5.775,-3.658 -5.226,-2.74 -6.853,-3.145 -10.458,-2.604 -2.724,0.409 -6.165,0.078 -9.502,-0.913 -2.878,-0.855 -5.488,-1.511 -5.801,-1.458 -0.312,0.053 -3.587,0.634 -7.277,1.292 m -24.112,3.006 c -0.294,0.766 0.495,2.361 1.754,3.543 2.066,1.941 3.352,2.143 13.178,2.072 5.989,-0.043 13.814,0.402 17.389,0.989 3.575,0.587 10.775,1.194 16,1.349 5.225,0.155 12.951,0.652 17.169,1.105 8.122,0.873 11.958,0.275 10.106,-1.577 -0.582,-0.582 -3.47,-1.205 -6.417,-1.383 -2.947,-0.179 -12.108,-0.857 -20.358,-1.508 -8.25,-0.65 -21.675,-1.475 -29.834,-1.833 -12.493,-0.548 -15.035,-0.927 -16.11,-2.401 -1.542,-2.114 -2.172,-2.192 -2.877,-0.356 m -35.187,11.91 c 1.737,3.408 3.999,9.458 5.026,13.446 2.098,8.144 3.494,9.355 3.458,3 -0.032,-5.771 -1.566,-11.976 -3.267,-13.223 -0.771,-0.565 -2.15,-2.476 -3.066,-4.247 -0.915,-1.772 -2.484,-3.66 -3.487,-4.196 -1.46,-0.782 -1.194,0.256 1.336,5.22 m 67.975,24.115 c -0.372,2.98 -0.392,7.592 -0.044,10.25 0.499,3.805 0.235,5.424 -1.244,7.625 -1.443,2.148 -1.767,3.999 -1.401,8 0.261,2.863 0.905,5.747 1.431,6.408 0.526,0.661 0.651,2.165 0.277,3.342 -0.546,1.721 -0.318,2.067 1.167,1.767 2.021,-0.409 2.034,-0.858 0.304,-10.642 -0.9,-5.088 -0.857,-6.659 0.218,-8 3.087,-3.849 6.116,-10.968 5.429,-12.76 -0.603,-1.569 -0.854,-1.627 -1.642,-0.381 -0.512,0.81 -0.938,2.484 -0.947,3.722 -0.008,1.238 -0.527,2.25 -1.153,2.25 -0.814,0 -0.941,-2.411 -0.447,-8.5 0.772,-9.522 -0.827,-12.053 -1.948,-3.081 M 36.308,413.25 c -3.769,3.971 -5.497,7.428 -7.642,15.284 -1.574,5.761 -1.558,6.35 0.343,12.997 2.174,7.601 2.486,11.045 1.081,11.913 -1.522,0.941 -3.757,-0.418 -4.933,-2.999 C 24.414,448.815 23.222,448 21.58,448 c -1.354,0 -2.74,-0.45 -3.08,-1 -0.962,-1.556 -2.505,-1.176 -1.876,0.462 0.308,0.804 1.532,1.747 2.718,2.095 2.073,0.608 7.658,5.996 7.658,7.387 0,0.371 -0.661,1.547 -1.468,2.615 -0.808,1.067 -1.483,2.953 -1.5,4.191 C 24.014,464.988 23.55,466 23,466 c -0.55,0 -1,0.986 -1,2.191 0,2.141 -0.033,2.147 -1.468,0.25 -0.808,-1.067 -1.483,-3.318 -1.5,-5.001 -0.035,-3.321 -4.328,-8.508 -9.073,-10.961 -3.747,-1.938 -9.16,-8.343 -8.273,-9.789 5.578,-9.091 19.441,-24.808 20.111,-22.8 0.42,1.26 -1.078,6.378 -4.027,13.764 -1.934,4.843 -1.923,8.346 0.028,8.346 1.117,0 4.498,-7.653 7.29,-16.5 2.386,-7.564 4.548,-10.96 8.735,-13.722 4.483,-2.956 5.894,-2.12 2.485,1.472 m 11.086,1.347 c -5.093,2.232 -5.104,2.247 -4.487,6.07 0.693,4.283 2.475,5.047 8.945,3.833 4.396,-0.825 2.376,-2.455 -2.615,-2.11 -2.899,0.201 -3.237,-0.055 -3.237,-2.451 0,-2.375 0.459,-2.737 4.083,-3.223 4.91,-0.659 5.585,-1.191 3.786,-2.989 -1.158,-1.158 -2.154,-1.024 -6.475,0.87 m 27.554,9.35 c 1.437,0.909 0.973,1.097 -6.22,2.525 -0.975,0.194 -3.141,-0.33 -4.813,-1.164 -1.672,-0.834 -3.329,-1.227 -3.684,-0.873 -0.354,0.355 0.293,0.889 1.439,1.189 1.145,0.299 2.664,1.632 3.375,2.96 1.464,2.736 5.955,3.411 5.955,0.895 0,-2.442 4.515,-4.021 7.547,-2.64 1.401,0.639 3.219,1.161 4.041,1.161 0.821,0 2.752,0.931 4.291,2.069 2.57,1.899 3.077,1.953 6.21,0.652 L 96.5,429.304 92,428.539 c -2.475,-0.421 -4.95,-1.096 -5.5,-1.499 -1.108,-0.814 -10.905,-4.049 -12.188,-4.025 -0.447,0.009 -0.16,0.428 0.636,0.932 m 142.698,5.189 c -0.545,1.993 -0.815,2.129 -1.727,0.864 -1.691,-2.347 -0.336,15.067 1.519,19.505 0.852,2.039 1.329,4.063 1.061,4.496 -0.803,1.3 2.167,1.933 3.379,0.721 1.43,-1.43 1.454,-4.445 0.038,-4.917 -0.635,-0.211 -1.289,-4.48 -1.578,-10.312 -0.525,-10.573 -1.552,-14.524 -2.692,-10.357 M 45.889,429.55 c -0.367,3.152 0.764,7.062 4.615,15.95 7.505,17.325 10.067,28.838 11.568,51.989 0.859,13.258 0.096,29.744 -1.563,33.761 -0.497,1.203 -0.261,1.75 0.754,1.75 2.355,0 3.828,-10.292 3.828,-26.741 0,-22.436 -4.169,-44.861 -11.111,-59.759 -2.05,-4.4 -4.289,-9.8 -4.975,-12 -1.28,-4.106 -2.912,-6.699 -3.116,-4.95 m 19.268,7.157 c -1.696,3.169 -1.54,4.107 2.864,17.234 5.711,17.023 7.167,28.102 7.337,55.808 l 0.142,23.25 h 2.814 L 81.127,533 80.476,512.25 c -1.094,-34.871 -3.893,-52.346 -10.437,-65.173 -1.121,-2.198 -2.071,-5.028 -2.109,-6.287 -0.039,-1.26 -0.418,-3.18 -0.843,-4.268 -0.755,-1.933 -0.799,-1.928 -1.93,0.185 m 125.142,5.666 c -1.76,1.17 -3.663,3.139 -4.228,4.377 -1.09,2.386 -0.214,2.993 1.641,1.137 0.612,-0.611 1.623,-0.942 2.247,-0.734 0.649,0.216 -0.321,2.083 -2.265,4.363 -5.968,6.993 -10.021,17.349 -11.149,28.484 -1.047,10.328 -3.453,22.224 -5.196,25.695 -1.026,2.042 -1.306,3.847 -0.776,5 0.667,1.452 0.901,1.158 1.196,-1.506 0.222,-2.004 0.833,-3.145 1.549,-2.892 0.65,0.23 1.051,1.27 0.891,2.311 -0.508,3.304 -0.949,5.876 -1.097,6.392 -0.078,0.275 -0.529,-0.11 -1.002,-0.856 -0.946,-1.493 -2.541,4.44 -3.658,13.606 -0.52,4.269 -0.361,5.25 0.849,5.25 0.963,0 1.67,-1.325 2,-3.75 1.08,-7.914 1.48,-9.35 3.107,-11.148 0.922,-1.02 1.946,-3.597 2.274,-5.728 0.327,-2.131 0.941,-4.324 1.364,-4.874 1.402,-1.824 1.565,-8.022 0.204,-7.75 -1.591,0.318 -1.571,-0.047 0.25,-4.404 0.825,-1.975 1.494,-4.773 1.487,-6.218 -0.033,-6.873 6.293,-30.055 9.129,-33.451 l 1.817,-2.177 0.034,2.917 c 0.068,6.027 1.443,1.197 2.046,-7.193 0.346,-4.798 0.596,-8.781 0.557,-8.851 -0.038,-0.07 -1.51,0.83 -3.271,2 M 39,449.718 c 0,5.183 2.32,9.806 4.318,8.607 0.903,-0.541 0.907,-0.368 0.019,0.733 -0.921,1.141 -0.431,2.685 2.348,7.404 3.644,6.186 4.939,7.552 9.565,10.084 2.534,1.387 2.745,1.366 2.689,-0.27 -0.033,-0.977 -2.002,-3.351 -4.376,-5.276 -3.463,-2.809 -4.958,-5.133 -7.572,-11.773 -1.792,-4.551 -3.648,-8.515 -4.124,-8.809 C 41.39,450.123 41,449.035 41,448 c 0,-1.035 -0.45,-2.16 -1,-2.5 -0.614,-0.379 -1,1.249 -1,4.218 m 184.342,6.834 c -0.434,1.129 -1.377,1.38 -3.469,0.92 -3.523,-0.774 -3.592,-0.16 -0.373,3.311 1.375,1.483 2.5,3.273 2.5,3.977 0,0.704 1.125,3.062 2.5,5.24 1.375,2.178 2.5,4.475 2.5,5.104 0,1.895 7.123,17.247 8.999,19.396 0.961,1.1 1.993,2.675 2.295,3.5 0.445,1.217 0.563,1.181 0.627,-0.191 0.043,-0.93 -0.371,-1.969 -0.921,-2.309 -0.55,-0.34 -1,-2.14 -1,-4 0,-1.86 -0.45,-3.66 -1,-4 -0.55,-0.34 -1,-1.977 -1,-3.638 0,-1.662 -1.099,-5.798 -2.442,-9.191 -1.344,-3.394 -2.763,-7.491 -3.155,-9.104 -0.391,-1.614 -1.315,-4.089 -2.051,-5.5 -0.737,-1.412 -1.342,-3.129 -1.346,-3.817 -0.009,-1.773 -1.953,-1.553 -2.664,0.302 M 1.299,460.646 c -1.42,0.577 -1.784,28.008 -0.401,30.211 1.62,2.58 2.08,-0.594 1.154,-7.967 -0.593,-4.724 -0.572,-7.764 0.06,-8.525 0.565,-0.68 0.695,-3.336 0.308,-6.256 C 1.867,463.937 2.036,462.923 3.373,462.41 4.268,462.067 5,461.384 5,460.893 5,459.947 3.298,459.834 1.299,460.646 m 189.297,5.919 c -0.88,9.248 -0.881,9.669 -0.041,19.165 0.713,8.061 0.679,8.248 -1.663,9.128 -2.641,0.992 -3.849,-0.301 -2.005,-2.146 0.612,-0.611 1.099,-2.485 1.081,-4.162 -0.065,-6.223 -2.673,0.19 -3.868,9.511 -0.637,4.967 -2.495,14.216 -4.129,20.553 -3.671,14.235 -3.673,14.386 -0.177,14.386 2.644,0 2.854,-0.337 3.896,-6.25 0.606,-3.437 2.012,-8.71 3.125,-11.716 1.416,-3.824 1.74,-5.997 1.079,-7.233 -1.005,-1.877 1.796,-12.445 2.983,-11.257 2.106,2.106 3.435,11.963 3.196,23.706 -0.255,12.55 -0.224,12.75 1.943,12.75 1.774,0 2.097,-0.436 1.667,-2.25 -0.294,-1.237 -0.844,-4.95 -1.223,-8.25 -0.859,-7.49 0.321,-6.53 3.993,3.25 1.497,3.987 3.1,7.25 3.562,7.25 1.974,0 -0.369,-11.785 -3.717,-18.698 -1.917,-3.96 -3.939,-8.91 -4.494,-11 -1.631,-6.147 -2.937,-24.194 -2.342,-32.352 0.406,-5.553 0.187,-8.048 -0.827,-9.435 -1.235,-1.688 -1.447,-1.163 -2.039,5.05 M 86.771,463 c 0.429,1.375 0.769,4.75 0.755,7.5 -0.02,3.922 -0.356,4.947 -1.559,4.756 -2.176,-0.346 -2.521,8.658 -0.434,11.313 1.422,1.81 1.51,1.681 1.395,-2.069 -0.207,-6.777 -0.194,-6.803 3.026,-6.159 l 2.953,0.59 -2.332,-4.386 -2.333,-4.387 3.381,-3.277 c 2.658,-2.576 4.183,-3.259 7.129,-3.191 3.094,0.07 3.359,-0.063 1.515,-0.764 -1.442,-0.548 -3.692,-0.335 -6.348,0.603 -3.927,1.385 -4.201,1.349 -6.022,-0.789 l -1.908,-2.24 0.782,2.5 m 258.179,2.153 c -1.205,2.391 -4.574,8.847 -7.488,14.347 -2.914,5.5 -7.838,15.85 -10.944,23 -6.099,14.044 -6.602,15.097 -11.355,23.773 -1.74,3.174 -3.163,5.987 -3.163,6.25 0,0.262 0.9,0.477 2,0.477 1.1,0 2,-0.62 2,-1.378 0,-0.757 0.749,-1.995 1.664,-2.75 1.504,-1.24 1.552,-1.162 0.5,0.812 -1.517,2.847 -1.469,3.316 0.336,3.316 0.825,0 1.504,-0.788 1.51,-1.75 0.005,-0.962 1.591,-3.739 3.524,-6.171 1.932,-2.431 3.753,-5.581 4.046,-7 0.293,-1.418 1.407,-4.504 2.476,-6.856 2.651,-5.832 2.392,-6.341 -1.13,-2.223 l -2.993,3.5 1.132,-3.252 c 0.622,-1.788 1.538,-3.502 2.033,-3.809 0.496,-0.306 0.902,-1.197 0.902,-1.979 0,-0.783 3.341,-8.359 7.425,-16.836 7.401,-15.365 11.058,-24.474 10.178,-25.354 -0.255,-0.255 -1.449,1.492 -2.653,3.883 M 417,473 c -1.375,0.44 -4.583,0.845 -7.128,0.9 -2.545,0.055 -6.145,0.709 -8,1.452 -1.855,0.744 -4.235,1.659 -5.289,2.033 -1.426,0.506 -1.628,0.97 -0.786,1.812 0.841,0.841 3.308,0.674 9.632,-0.653 6.42,-1.348 10.163,-1.592 15.286,-1 3.732,0.432 8.135,0.876 9.785,0.987 1.65,0.111 3.45,0.375 4,0.586 1.032,0.395 1.5,-0.299 1.5,-2.225 0,-0.692 -0.968,-0.866 -2.575,-0.463 -1.416,0.356 -4.228,0.116 -6.25,-0.532 -2.021,-0.649 -4.35,-1.389 -5.175,-1.646 -1.174,-0.364 -1.066,-0.644 0.5,-1.288 1.803,-0.742 1.754,-0.82 -0.5,-0.793 -1.375,0.016 -3.625,0.39 -5,0.83 m -18.385,13.438 c 0.656,1.71 4.254,3.562 6.919,3.562 0.805,0 1.17,-0.609 0.856,-1.427 -0.4,-1.042 0.013,-1.28 1.531,-0.883 1.143,0.299 2.079,1.076 2.079,1.727 0,2.819 2.063,3.202 9.763,1.813 4.255,-0.767 8.187,-1.47 8.737,-1.563 0.55,-0.092 1,0.283 1,0.833 0,0.55 -0.371,0.876 -0.824,0.725 -0.454,-0.151 -0.54,0.187 -0.191,0.75 0.97,1.571 3.025,1.224 4.878,-0.824 1.425,-1.574 2.767,-1.778 9.046,-1.375 4.829,0.31 9.914,-0.096 14.732,-1.174 13.776,-3.084 11.516,-3.68 -11.141,-2.937 -26.384,0.865 -32.621,0.841 -41.272,-0.159 -6.163,-0.713 -6.713,-0.629 -6.113,0.932 M 35.554,498.489 c -0.387,2.58 -0.184,7.913 0.45,11.851 1.501,9.309 5.143,22.66 6.183,22.66 1.497,0 0.834,-6.039 -1.076,-9.79 -1.346,-2.643 -2.097,-7.051 -2.612,-15.332 -0.813,-13.066 -1.882,-16.476 -2.945,-9.389 m 443.884,-3.527 c -1.213,0.491 -3.271,3.542 -5,7.409 -1.616,3.617 -3.287,6.587 -3.713,6.602 -0.426,0.015 -1.179,-1.036 -1.673,-2.336 -0.932,-2.452 -4.63,-4.129 -5.61,-2.543 -0.308,0.498 0.367,0.906 1.499,0.906 2.235,0 2.75,1.455 0.916,2.588 -1.827,1.13 3.303,3.296 9.543,4.029 3.644,0.429 5.6,0.294 5.6,-0.386 0,-0.574 -0.902,-0.808 -2.005,-0.519 -2.939,0.768 -5.213,-1.435 -3.939,-3.817 0.558,-1.042 1.674,-1.895 2.479,-1.895 0.864,0 1.465,-0.948 1.465,-2.311 0,-2.342 3.275,-6.689 5.039,-6.689 0.529,0 0.961,-0.45 0.961,-1 0,-1.187 -2.679,-1.205 -5.562,-0.038 M 0,499.415 c 0,1.531 0.715,2.677 1.904,3.055 2.683,0.851 12.027,10.17 15.573,15.53 6.76,10.221 10.985,15 13.26,15 3.545,0 2.725,-2.014 -3.669,-9.009 C 20.841,517.178 17.266,512 18.788,512 c 0.496,0 1.717,0.9 2.712,2 0.995,1.1 2.154,2 2.575,2 2.1,0 -12.027,-12.414 -17.632,-15.494 L 0,496.965 v 2.45 m 495.572,-1.532 c -0.717,1.161 -0.611,17.386 0.133,20.382 0.778,3.128 2.033,0.922 3.303,-5.806 1.085,-5.752 1.495,-6.528 3.306,-6.262 1.409,0.206 2.364,1.418 2.997,3.803 0.805,3.03 1.034,3.231 1.704,1.5 0.498,-1.287 0.165,-3.069 -0.935,-5 -1.377,-2.42 -2.324,-2.972 -4.894,-2.854 -2.633,0.121 -3.189,-0.227 -3.201,-2 -0.021,-2.885 -1.515,-5.215 -2.413,-3.763 m -95.014,8.16 c 0.352,4.651 1.073,10.183 1.602,12.292 0.53,2.109 0.658,6.271 0.286,9.25 -0.621,4.975 -0.514,5.415 1.325,5.415 2.863,0 3.915,-7.422 1.778,-12.538 -0.852,-2.038 -1.569,-5.564 -1.593,-7.834 -0.047,-4.406 -2.029,-13.034 -3.282,-14.287 -0.415,-0.416 -0.468,3.05 -0.116,7.702 m 12.299,-2.474 c -4.79,1.474 -6.262,3.213 -5.157,6.091 0.548,1.427 0.748,1.361 1.425,-0.47 0.434,-1.171 2.003,-2.435 3.487,-2.808 3.849,-0.965 5.638,1.767 4.803,7.335 -0.509,3.396 -0.311,4.386 0.979,4.881 0.924,0.354 1.884,2.288 2.239,4.511 0.343,2.14 0.987,3.891 1.432,3.891 1.171,0 -0.062,-7.11 -1.685,-9.715 -1.719,-2.759 -1.781,-5.29 -0.13,-5.27 2.37,0.029 3.82,1.638 3.215,3.565 -0.406,1.292 -0.136,1.14 0.823,-0.465 l 1.427,-2.386 0.527,2.756 c 0.308,1.613 -0.143,3.923 -1.089,5.571 -1.591,2.772 -0.835,5.666 0.792,3.033 1.004,-1.625 1.873,0.567 2.244,5.661 0.135,1.861 0.787,3.25 1.524,3.25 1.942,0 1.628,-2.543 -2.08,-16.847 -1.201,-4.633 -3.585,-6.66 -6.834,-5.811 -1.791,0.469 -1.93,0.169 -1.352,-2.91 0.516,-2.751 0.325,-3.432 -0.961,-3.432 -0.882,0 -1.326,-0.45 -0.986,-1 0.34,-0.55 0.479,-0.969 0.309,-0.93 -0.17,0.038 -2.398,0.712 -4.952,1.499"
     stroke="none"
     fill="#000000"
     fill-rule="evenodd"
     id="path132"
     style="fill:#ffffff" />
</svg>
